<?xml version="1.0" encoding="UTF-8"?>
<svg version="1.1" xmlns="http://www.w3.org/2000/svg" width="612" height="612">
<path d="M0 0 C3.14977496 2.92183072 5.30792837 5.87539707 7.5 9.5625 C8.19935094 10.72336184 8.89995176 11.8834713 9.6015625 13.04296875 C9.9821582 13.67380371 10.36275391 14.30463867 10.75488281 14.95458984 C18.78158117 28.14040923 27.16428283 41.1292244 35.953125 53.8203125 C36.50484375 54.62210938 37.0565625 55.42390625 37.625 56.25 C38.09164062 56.91515625 38.55828125 57.5803125 39.0390625 58.265625 C40 60 40 60 40 63 C40.66 63 41.32 63 42 63 C43.5078125 65.1171875 43.5078125 65.1171875 45.125 67.875 C45.66382813 68.77992188 46.20265625 69.68484375 46.7578125 70.6171875 C48 73 48 73 48 75 C48.66 75 49.32 75 50 75 C51.03572896 76.74122549 52.0531252 78.49336595 53.0625 80.25 C53.91521484 81.71179688 53.91521484 81.71179688 54.78515625 83.203125 C56 86 56 86 55.84375 88.28125 C55 90 55 90 52.4375 91.25 C51.633125 91.4975 50.82875 91.745 50 92 C50 92.66 50 93.32 50 94 C49.34 94 48.68 94 48 94 C48 94.66 48 95.32 48 96 C46.8880216 96.95745279 45.7328376 97.86483238 44.5625 98.75 C32.68350627 108.90190599 25.29633805 125.87511322 23.77856445 141.24194336 C22.75848704 161.11496529 27.57282941 179.09200031 40 195 C53.57775136 209.20510621 70.07613156 218.6717421 90 220 C90.70640625 220.0515625 91.4128125 220.103125 92.140625 220.15625 C104.11571154 220.63208125 116.67512728 217.96542605 126.984375 211.81640625 C129 211 129 211 130.92993164 211.07836914 C134.14554061 212.51001484 134.70656967 214.77379347 136.13671875 217.9296875 C136.41760345 218.54270721 136.69848816 219.15572693 136.98788452 219.787323 C137.90583401 221.80897599 138.79850728 223.840461 139.6875 225.875 C139.99613983 226.5719397 140.30477966 227.26887939 140.62277222 227.98693848 C150.15901803 249.56989393 156.89297911 271.03206365 160.5703125 294.38232422 C160.84712986 296.06870818 161.16795086 297.74874311 161.54199219 299.41625977 C162.56660599 305.19637055 162.2450961 311.20168017 162.25 317.0625 C162.25067474 317.78108185 162.25134949 318.4996637 162.25204468 319.24002075 C162.21377134 344.90783955 157.38620606 370.71248045 144 393 C143.25032946 394.29501036 142.50172751 395.59063962 141.75390625 396.88671875 C140.94097264 398.27915323 140.12716516 399.67107788 139.3125 401.0625 C138.9196582 401.74296387 138.52681641 402.42342773 138.12207031 403.12451172 C137.13724585 404.78412332 136.07485116 406.39722588 135 408 C134.34 408 133.68 408 133 408 C132.731875 408.804375 132.46375 409.60875 132.1875 410.4375 C131.795625 411.283125 131.40375 412.12875 131 413 C130.01 413.33 129.02 413.66 128 414 C127.29090565 415.31126177 126.62960492 416.64877098 126 418 C122.07618301 422.99578761 117.64842151 427.67588696 113 432 C112.34 432 111.68 432 111 432 C111 432.66 111 433.32 111 434 C109.67407227 435.23339844 109.67407227 435.23339844 107.81640625 436.609375 C106.80356567 437.36577271 106.80356567 437.36577271 105.77026367 438.13745117 C105.04170166 438.66959229 104.31313965 439.2017334 103.5625 439.75 C102.82040283 440.29567627 102.07830566 440.84135254 101.3137207 441.40356445 C99.84948423 442.47594718 98.38267333 443.54482523 96.91308594 444.60986328 C95.46541343 445.66180908 94.03037311 446.73116816 92.6015625 447.80859375 C84.82196487 453.41307939 75.71457077 457.10337289 67 461 C66.32066406 461.30502441 65.64132812 461.61004883 64.94140625 461.92431641 C55.1897239 466.23928628 45.39356055 468.84846677 35 471 C34.14921875 471.17789062 33.2984375 471.35578125 32.421875 471.5390625 C12.54056105 475.32292548 -9.09418595 475.84276781 -29 472 C-29.83837402 471.83870605 -30.67674805 471.67741211 -31.54052734 471.51123047 C-60.12747658 465.83643959 -86.82103869 454.14124879 -109 435 C-109.86753906 434.30777344 -110.73507813 433.61554688 -111.62890625 432.90234375 C-114.29594884 430.76255835 -116.68351576 428.51504003 -119 426 C-119 425.34 -119 424.68 -119 424 C-119.99 423.67 -120.98 423.34 -122 423 C-123.83863894 420.86858416 -125.5556276 418.74094414 -127.25 416.5 C-128.23819554 415.21217381 -129.2264767 413.92441331 -130.21484375 412.63671875 C-130.6929248 412.00942871 -131.17100586 411.38213867 -131.66357422 410.73583984 C-133.33836653 408.56050676 -135.07919015 406.44133022 -136.8125 404.3125 C-161.41531923 372.50456942 -163.86452032 331.25304704 -160 293 C-159.87882813 291.79730469 -159.75765625 290.59460938 -159.6328125 289.35546875 C-157.55142394 273.15037213 -151.7125131 257.24093952 -146 242 C-145.65267822 241.05398926 -145.65267822 241.05398926 -145.29833984 240.08886719 C-141.97004767 231.06799919 -137.89243588 222.72663013 -133.30859375 214.296875 C-130.64306636 209.38521747 -128.17258969 204.38165988 -125.73876953 199.35180664 C-123.76913873 195.33840783 -121.50847269 191.69484454 -119 188 C-118.01840688 186.26293992 -117.0592664 184.51296598 -116.125 182.75 C-113.68778538 178.21935922 -111.11153712 173.80421204 -108.4375 169.41015625 C-107.04351915 167.07296552 -105.73310679 164.70532379 -104.4375 162.3125 C-102.56644823 158.9002293 -100.4794243 155.79111384 -98.17578125 152.66015625 C-96.22554921 149.90650637 -94.63652193 146.94573948 -93 144 C-91.8003602 141.84929442 -90.59140207 139.70376975 -89.375 137.5625 C-88.78460938 136.51191406 -88.19421875 135.46132812 -87.5859375 134.37890625 C-87.06257813 133.59386719 -86.53921875 132.80882812 -86 132 C-85.34 132 -84.68 132 -84 132 C-83.77183594 131.34515625 -83.54367188 130.6903125 -83.30859375 130.015625 C-81.577184 126.02563 -79.35090575 122.44211447 -77.0625 118.75 C-76.57523437 117.95859619 -76.08796875 117.16719238 -75.5859375 116.35180664 C-70.96295111 108.87584938 -66.1976892 101.49500262 -61.39257812 94.13525391 C-59.0027836 90.47095816 -56.62657014 86.79788112 -54.25 83.125 C-53.55934448 82.0585022 -53.55934448 82.0585022 -52.85473633 80.97045898 C-49.73030033 76.14178516 -46.6392589 71.29280192 -43.5625 66.43359375 C-41.5146626 63.244087 -39.3977901 60.10361015 -37.26171875 56.97265625 C-36.0227492 55.03556763 -34.9884653 53.07438492 -34 51 C-33.34 51 -32.68 51 -32 51 C-31.78601563 50.36191406 -31.57203125 49.72382812 -31.3515625 49.06640625 C-29.44779574 44.74716664 -26.9197814 40.9046066 -24.375 36.9375 C-23.83447998 36.08841064 -23.29395996 35.23932129 -22.73706055 34.36450195 C-19.20956093 28.8397494 -15.61747433 23.36462579 -11.953125 17.9296875 C-9.20503734 13.80755601 -6.53920775 9.63382481 -3.88012695 5.45385742 C-1.10350179 1.10350179 -1.10350179 1.10350179 0 0 Z M-62 242 C-62 242.66 -62 243.32 -62 244 C-63.98 244.99 -63.98 244.99 -66 246 C-66 246.66 -66 247.32 -66 248 C-66.99 248.33 -67.98 248.66 -69 249 C-84.28334029 268.80720901 -84.64706117 297.49614833 -81.76171875 321.1953125 C-80.32095282 331.29489878 -77.0007274 341.10981796 -72 350 C-71.34 350 -70.68 350 -70 350 C-68.5 353 -68.5 353 -67 356 C-66.34 356 -65.68 356 -65 356 C-64.67 356.99 -64.34 357.98 -64 359 C-63.34 359 -62.68 359 -62 359 C-62 359.66 -62 360.32 -62 361 C-47.26419672 372.18770314 -29.60048138 373.41700004 -11.8203125 371.69140625 C-5.92359968 370.62698365 -0.47130496 368.39806132 5 366 C5 365.34 5 364.68 5 364 C5.88558594 363.81630859 5.88558594 363.81630859 6.7890625 363.62890625 C13.69999549 361.66307549 18.48356868 355.95567735 22 350 C32.31823615 330.31797866 34.036079 309.80316699 32.25 287.9375 C32.17628174 287.01074463 32.10256348 286.08398926 32.02661133 285.12915039 C31.10062491 275.45436811 28.84422816 266.613706 24.0625 258.125 C23.72798828 257.50109375 23.39347656 256.8771875 23.04882812 256.234375 C19.12328324 249.06401555 14.68703281 244.50351189 8 240 C7.24203125 239.46890625 6.4840625 238.9378125 5.703125 238.390625 C-13.27860354 226.48283256 -44.4153338 228.70556863 -62 242 Z M46 297 C45.43842763 298.92987258 45.43842763 298.92987258 45.1484375 301.25390625 C45.01953125 302.10791016 44.890625 302.96191406 44.7578125 303.84179688 C44.63148438 304.73962891 44.50515625 305.63746094 44.375 306.5625 C44.2409375 307.46419922 44.106875 308.36589844 43.96875 309.29492188 C43.637791 311.52889514 43.31526495 313.76376696 43 316 C48.32475359 315.38487823 48.32475359 315.38487823 53.59765625 314.453125 C59.90492994 313.26346037 66.5863863 313.31614279 72.75 315.0625 C75 317 75 317 76.1875 320.0625 C75.75462893 329.15279254 70.00206036 335.64255448 64 342 C62.84534859 343.28379006 61.69894077 344.57506185 60.5625 345.875 C60.06878906 346.42929687 59.57507813 346.98359375 59.06640625 347.5546875 C57.80209393 348.96886621 57.80209393 348.96886621 58 351 C57.40703125 351.25523437 56.8140625 351.51046875 56.203125 351.7734375 C53.7732551 353.12623741 52.50763734 354.48341276 50.75 356.625 C48.21005048 359.67074034 45.56128926 362.33734343 42.625 365 C39.40502167 368.19511363 38.07703515 370.29689042 37.94140625 374.8359375 C37.96074219 375.55007813 37.98007812 376.26421875 38 377 C37.98839844 377.89976562 37.97679687 378.79953125 37.96484375 379.7265625 C37.94092028 382.15308618 37.95525679 384.57392364 38 387 C40.67478064 388.33739032 42.72400855 388.12714329 45.71899414 388.12939453 C46.9168605 388.13254669 48.11472687 388.13569885 49.34889221 388.13894653 C50.64785934 388.1369223 51.94682648 388.13489807 53.28515625 388.1328125 C54.62511716 388.13348582 55.96507796 388.13445608 57.30503845 388.13571167 C60.11360843 388.13718681 62.92214661 388.13503963 65.73071289 388.13037109 C69.33797002 388.1246684 72.94515285 388.12795736 76.55240726 388.13394356 C79.31897038 388.13754943 82.08551575 388.13641056 84.85207939 388.13381577 C86.83140486 388.13282067 88.810731 388.13586688 90.79005432 388.13894653 C91.98476852 388.13579437 93.17948273 388.13264221 94.41040039 388.12939453 C95.46804092 388.12859894 96.52568146 388.12780334 97.6153717 388.12698364 C99.95393947 388.26889571 99.95393947 388.26889571 101 387 C101.15582303 385.65984779 101.25044142 384.31241097 101.31640625 382.96484375 C101.35451416 382.23644287 101.39262207 381.50804199 101.43188477 380.75756836 C101.47498779 379.8269458 101.51809082 378.89632324 101.5625 377.9375 C101.706875 374.988125 101.85125 372.03875 102 369 C91.77 369 81.54 369 71 369 C71.495 367.02 71.495 367.02 72 365 C73.83984375 363.9609375 73.83984375 363.9609375 76 363 C79.68469779 359.782823 83.38554047 356.15237689 86 352 C86 351.34 86 350.68 86 350 C86.66 350 87.32 350 88 350 C89.70173077 347.90973247 91.26908135 345.82826967 92.8125 343.625 C93.26173828 342.98884766 93.71097656 342.35269531 94.17382812 341.69726562 C97.64638394 336.69255165 100.60634416 331.61307069 103 326 C103.433125 324.989375 103.86625 323.97875 104.3125 322.9375 C105.96806809 315.86370905 105.28481131 310.43275549 102 304 C101.34 304 100.68 304 100 304 C100 303.34 100 302.68 100 302 C87.9648411 291.55113711 60.18023834 289.90988083 46 297 Z " fill="#FFFFFF" transform="translate(296,74)"/>
<path d="M0 0 C0.67933594 0.30808594 1.35867188 0.61617187 2.05859375 0.93359375 C3.39452847 1.57842136 4.70326076 2.27958931 6 3 C6 3.66 6 4.32 6 5 C6.61875 5.2475 7.2375 5.495 7.875 5.75 C10.40358627 7.23740369 10.71839004 8.43678009 12 11 C12.61875 11.28875 13.2375 11.5775 13.875 11.875 C20.0967441 15.16886452 22.05822248 23.73708378 24 30 C27.07901885 42.55599894 25.13776916 55.34142656 18.69921875 66.39453125 C11.51936241 77.4036443 2.57026748 83.58950771 -9.828125 87.58984375 C-22.9214817 90.06251003 -36.74966843 87.7693237 -47.890625 80.53125 C-50.59086913 78.57107278 -52.79284962 76.50541395 -55 74 C-55.56460937 73.42636719 -56.12921875 72.85273438 -56.7109375 72.26171875 C-61.41345756 67.31117548 -64.00545411 62.51219232 -66 56 C-66.2371875 55.23042969 -66.474375 54.46085937 -66.71875 53.66796875 C-69.76768753 41.57251265 -67.71885168 28.95281319 -62 18 C-55.62737068 7.82691374 -46.09794699 0.00773454 -34.5 -3.375 C-22.71221314 -5.47996194 -10.99173745 -4.98649553 0 0 Z " fill="#FFFFFF" transform="translate(412,181)"/>
<path d="M0 0 C0 0.66 0 1.32 0 2 C0.89525391 2.38285156 0.89525391 2.38285156 1.80859375 2.7734375 C7.0950086 5.7323221 10.62074354 12.0337317 12.46484375 17.6875 C15.29742145 29.9275438 14.11523586 41.3790088 7.5625 52.1875 C5.36494321 55.54528811 3.76852216 57.51743853 0 59 C0 59.66 0 60.32 0 61 C-2.24756784 62.15082685 -4.49781748 63.29576858 -6.75 64.4375 C-7.70132813 64.92573242 -7.70132813 64.92573242 -8.671875 65.42382812 C-17.22081805 69.74282539 -26.71868807 70.5405399 -36.0078125 67.74609375 C-46.36734976 63.86634548 -54.64270365 57.92091917 -60 48 C-64.38705303 37.7825345 -64.4182971 26.08199917 -61.1015625 15.52734375 C-56.83696191 5.74295871 -47.98530056 -2.35071005 -38.15625 -6.2890625 C-25.3776564 -10.50229445 -10.91286659 -7.60593732 0 0 Z " fill="#FFFFFF" transform="translate(442,66)"/>
<path d="M0 0 C7.36024813 5.55773839 9.41298777 11.45415923 10.66992188 20.27734375 C11.4733355 27.51807489 11.35742926 34.82091883 11.32324219 42.09619141 C11.31251841 44.80784459 11.32319532 47.51883553 11.3359375 50.23046875 C11.36092514 78.62924548 11.36092514 78.62924548 4.0625 87.3125 C-1.12734706 91.8382434 -7.31490435 91.92875342 -13.9453125 91.69140625 C-19.53095947 90.98408542 -21.91118654 88.41041672 -25.625 84.4375 C-32.35154736 74.14825945 -31.41009371 59.86855603 -31.32861328 48.08105469 C-31.3125236 45.3165555 -31.32854711 42.55351773 -31.34765625 39.7890625 C-31.38219181 11.08792387 -31.38219181 11.08792387 -22.9375 2.3125 C-16.5742205 -2.76072967 -7.26634102 -3.82028659 0 0 Z " fill="#FFFFFF" transform="translate(280.9375,330.6875)"/>
<path d="M0 0 C6.64840614 4.53407203 11.60405253 10.50512399 13.61328125 18.4140625 C15.17691153 28.86985288 13.95086502 38.17012853 8 47 C0.3138751 54.45403942 -6.22207649 58.05786018 -16.875 58.4375 C-23.31213844 58.31291022 -28.30558484 56.92956482 -34 54 C-34.66 53.67 -35.32 53.34 -36 53 C-36 52.34 -36 51.68 -36 51 C-36.61875 50.7525 -37.2375 50.505 -37.875 50.25 C-40.35068687 48.79371361 -40.95125002 47.62187494 -42 45 C-42.66 45 -43.32 45 -44 45 C-48.63594665 35.04513241 -50.1382693 24.2204823 -46.5625 13.625 C-43.18278733 6.50981544 -37.49018456 0.81721267 -30.375 -2.5625 C-20.48067352 -5.906844 -9.01933731 -5.38610603 0 0 Z " fill="#FFFFFF" transform="translate(522,141)"/>
<path d="M0 0 C2 1 2 1 2 1 Z " fill="#FFFFFF" transform="translate(344,372)"/>
<path d="" fill="#FFFFFF" transform="translate(0,0)"/>
<path d="" fill="#FFFFFF" transform="translate(0,0)"/>
<path d="" fill="#FFFFFF" transform="translate(0,0)"/>
<path d="" fill="#FFFFFF" transform="translate(0,0)"/>
<path d="" fill="#FFFFFF" transform="translate(0,0)"/>
<path d="" fill="#FFFFFF" transform="translate(0,0)"/>
<path d="" fill="#FFFFFF" transform="translate(0,0)"/>
<path d="" fill="#FFFFFF" transform="translate(0,0)"/>
<path d="" fill="#FFFFFF" transform="translate(0,0)"/>
<path d="" fill="#FFFFFF" transform="translate(0,0)"/>
<path d="" fill="#FFFFFF" transform="translate(0,0)"/>
<path d="" fill="#FFFFFF" transform="translate(0,0)"/>
<path d="" fill="#FFFFFF" transform="translate(0,0)"/>
<path d="" fill="#FFFFFF" transform="translate(0,0)"/>
<path d="" fill="#FFFFFF" transform="translate(0,0)"/>
<path d="" fill="#FFFFFF" transform="translate(0,0)"/>
<path d="" fill="#FFFFFF" transform="translate(0,0)"/>
<path d="" fill="#FFFFFF" transform="translate(0,0)"/>
<path d="" fill="#FFFFFF" transform="translate(0,0)"/>
<path d="" fill="#FFFFFF" transform="translate(0,0)"/>
<path d="" fill="#FFFFFF" transform="translate(0,0)"/>
<path d="" fill="#FFFFFF" transform="translate(0,0)"/>
<path d="" fill="#FFFFFF" transform="translate(0,0)"/>
<path d="" fill="#FFFFFF" transform="translate(0,0)"/>
<path d="" fill="#FFFFFF" transform="translate(0,0)"/>
<path d="" fill="#FFFFFF" transform="translate(0,0)"/>
<path d="" fill="#FFFFFF" transform="translate(0,0)"/>
<path d="" fill="#FFFFFF" transform="translate(0,0)"/>
<path d="" fill="#FFFFFF" transform="translate(0,0)"/>
<path d="" fill="#FFFFFF" transform="translate(0,0)"/>
<path d="" fill="#FFFFFF" transform="translate(0,0)"/>
<path d="" fill="#FFFFFF" transform="translate(0,0)"/>
<path d="" fill="#FFFFFF" transform="translate(0,0)"/>
<path d="" fill="#FFFFFF" transform="translate(0,0)"/>
<path d="" fill="#FFFFFF" transform="translate(0,0)"/>
<path d="" fill="#FFFFFF" transform="translate(0,0)"/>
<path d="" fill="#FFFFFF" transform="translate(0,0)"/>
<path d="" fill="#FFFFFF" transform="translate(0,0)"/>
<path d="" fill="#FFFFFF" transform="translate(0,0)"/>
<path d="" fill="#FFFFFF" transform="translate(0,0)"/>
<path d="" fill="#FFFFFF" transform="translate(0,0)"/>
<path d="" fill="#FFFFFF" transform="translate(0,0)"/>
</svg>
